<?xml version="1.0" encoding="UTF-8" standalone="no"?>
<!-- Created with Inkscape (http://www.inkscape.org/) -->

<svg
   version="1.1"
   id="svg43282"
   width="2133.3333"
   height="2133.3333"
   viewBox="0 0 2133.3333 2133.3333"
   sodipodi:docname="dumbbell-weights-vector.svg"
   inkscape:version="1.2 (dc2aedaf03, 2022-05-15)"
   xmlns:inkscape="http://www.inkscape.org/namespaces/inkscape"
   xmlns:sodipodi="http://sodipodi.sourceforge.net/DTD/sodipodi-0.dtd"
   xmlns="http://www.w3.org/2000/svg"
   xmlns:svg="http://www.w3.org/2000/svg">
  <defs
     id="defs43286">
    <clipPath
       clipPathUnits="userSpaceOnUse"
       id="clipPath43298">
      <path
         d="M 0,1600 H 1600 V 0 H 0 Z"
         id="path43296" />
    </clipPath>
  </defs>
  <sodipodi:namedview
     id="namedview43284"
     pagecolor="#ffffff"
     bordercolor="#000000"
     borderopacity="0.25"
     inkscape:showpageshadow="2"
     inkscape:pageopacity="0.0"
     inkscape:pagecheckerboard="0"
     inkscape:deskcolor="#d1d1d1"
     showgrid="false"
     inkscape:zoom="0.39234377"
     inkscape:cx="1066.6666"
     inkscape:cy="1067.941"
     inkscape:window-width="1920"
     inkscape:window-height="1017"
     inkscape:window-x="-8"
     inkscape:window-y="-8"
     inkscape:window-maximized="1"
     inkscape:current-layer="g43290">
    <inkscape:page
       x="0"
       y="0"
       id="page43288"
       width="2133.3333"
       height="2133.3333" />
  </sodipodi:namedview>
  <g
     id="g43290"
     inkscape:groupmode="layer"
     inkscape:label="Page 1"
     transform="matrix(1.3333333,0,0,-1.3333333,0,2133.3333)">
    <g
       id="g43292">
      <g
         id="g43294"
         clip-path="url(#clipPath43298)">
        <g
           id="g43300"
           transform="translate(237.4229,602.1162)">
          <path
             d="m 0,0 h 1108.297 c 78.529,0 142.779,-64.251 142.779,-142.784 0,-78.533 -64.25,-142.78 -142.779,-142.78 L 0,-285.564 c -78.534,0 -142.779,64.247 -142.779,142.78 C -142.779,-64.251 -78.534,0 0,0"
             style="fill:#dbcec0;fill-opacity:1;fill-rule:evenodd;stroke:none"
             id="path43302" />
        </g>
        <g
           id="g43304"
           transform="translate(411.9434,1075.502)">
          <path
             d="m 0,0 h 76.135 c 162.71,0 295.835,-133.124 295.835,-295.836 0,-162.712 -133.125,-295.832 -295.835,-295.832 H 0 c -162.709,0 -295.835,133.12 -295.835,295.832 C -295.835,-133.124 -162.71,0 0,0"
             style="fill:#586882;fill-opacity:1;fill-rule:evenodd;stroke:none"
             id="path43306" />
        </g>
        <g
           id="g43308"
           transform="translate(394.7021,1008.4629)">
          <path
             d="m 0,0 c -15.354,-1.568 -29.077,9.604 -30.651,24.958 -1.569,15.355 9.605,29.079 24.96,30.648 4.87,0.509 9.799,0.893 14.775,1.152 5.84,0.301 10.788,0.456 14.828,0.456 15.475,0 28.026,-12.546 28.026,-28.021 C 51.938,13.719 39.387,1.171 23.912,1.171 18.97,1.171 14.978,1.091 11.932,0.932 7.949,0.727 3.968,0.413 0,0 m -182.495,-329.995 c 6.825,-13.843 1.139,-30.607 -12.704,-37.437 -13.839,-6.83 -30.603,-1.144 -37.433,12.7 -9.582,19.38 -17.014,39.908 -22.001,61.257 -4.881,20.909 -7.463,42.567 -7.463,64.678 0,57.04 17,110.399 46.199,155.255 30.056,46.19 73.098,83.267 123.843,105.957 14.085,6.287 30.598,-0.036 36.887,-14.121 6.29,-14.085 -0.034,-30.6 -14.118,-36.887 -40.865,-18.272 -75.536,-48.148 -99.763,-85.378 -23.385,-35.928 -37.003,-78.82 -37.003,-124.826 0,-17.971 2.052,-35.371 5.928,-51.98 4.035,-17.29 9.991,-33.777 17.628,-49.218"
             style="fill:#93a0b5;fill-opacity:1;fill-rule:evenodd;stroke:none"
             id="path43310" />
        </g>
        <g
           id="g43312"
           transform="translate(571.6074,1063.3984)">
          <path
             d="m 0,0 c 122.371,-36.277 212.306,-150.001 212.306,-283.732 0,-162.707 -133.125,-295.832 -295.835,-295.832 h -76.135 c -8.215,0 -16.344,0.356 -24.395,1.017 157.376,12.7 299.417,143.963 321.988,302.658 v 0.003 C 155.271,-153.947 97.465,-48.207 0,0"
             style="fill:#4b5970;fill-opacity:1;fill-rule:evenodd;stroke:none"
             id="path43314" />
        </g>
        <g
           id="g43316"
           transform="translate(622.0576,929.0801)">
          <path
             d="m 0,0 c -17.289,-22.392 -49.461,-26.526 -71.853,-9.233 -22.391,17.292 -26.528,49.465 -9.234,71.857 l 28.739,37.17 c 6.164,7.974 10.808,16.836 13.916,26.543 3.201,9.979 4.803,21.473 4.803,34.437 v 5.932 c 0,20.172 -5.845,37.824 -15.277,50.019 -6.545,8.462 -14.509,13.711 -22.338,13.711 H -256.52 c -7.82,0 -15.794,-5.249 -22.334,-13.711 -9.431,-12.2 -15.277,-29.847 -15.277,-50.019 v -5.932 c 0,-9.395 0.84,-18.018 2.52,-25.852 -33.928,-9.792 -65.4,-25.53 -93.207,-45.996 -0.72,2.015 -1.411,4.05 -2.067,6.098 -6.671,20.831 -10.015,42.774 -10.015,65.75 v 5.932 c 0,43.23 14.142,83.139 36.959,112.646 25.699,33.24 62.228,53.851 103.421,53.851 h 185.276 c 41.192,0 77.726,-20.609 103.43,-53.851 22.812,-29.507 36.955,-69.414 36.955,-112.646 v -5.932 c 0,-22.976 -3.35,-44.919 -10.021,-65.75 C 52.362,73.927 42.226,54.606 28.739,37.167 Z"
             style="fill:#435269;fill-opacity:1;fill-rule:evenodd;stroke:none"
             id="path43318" />
        </g>
        <g
           id="g43320"
           transform="translate(746.3018,483.834)">
          <path
             d="M 0,0 C 93.044,0 168.932,84.171 168.932,187.369 168.932,290.571 93.044,374.74 0,374.74 -93.038,374.74 -168.922,290.571 -168.922,187.369 -168.922,84.171 -93.038,0 0,0"
             style="fill:#333333;fill-opacity:1;fill-rule:evenodd;stroke:none"
             id="path43322" />
        </g>
        <g
           id="g43324"
           transform="translate(705.1094,827.7617)">
          <path
             d="m 0,0 c -4.358,-1.642 -9.22,0.562 -10.86,4.918 -1.641,4.359 0.559,9.222 4.919,10.863 0.931,0.348 2.234,0.816 3.923,1.4 1.816,0.625 3.128,1.069 3.953,1.33 4.451,1.385 9.181,-1.098 10.567,-5.549 C 13.887,8.515 11.406,3.786 6.956,2.398 5.29,1.875 4.117,1.493 3.466,1.269 2.679,0.996 1.521,0.571 0,0 m -86.99,-224.742 c 1.728,-4.316 -0.367,-9.23 -4.692,-10.957 -4.325,-1.734 -9.229,0.366 -10.962,4.686 -4.653,11.536 -8.258,23.696 -10.681,36.327 -2.365,12.342 -3.611,25.105 -3.611,38.127 0,34.866 8.829,67.466 24.125,95.154 15.885,28.758 38.75,52.219 65.964,67.458 4.064,2.278 9.209,0.828 11.488,-3.237 2.278,-4.064 0.831,-9.209 -3.234,-11.49 -24.477,-13.701 -45.074,-34.867 -59.428,-60.85 -13.956,-25.264 -22.011,-55.078 -22.011,-87.035 0,-12.047 1.135,-23.738 3.282,-34.956 2.221,-11.589 5.513,-22.71 9.76,-33.227"
             style="fill:#808080;fill-opacity:1;fill-rule:evenodd;stroke:none"
             id="path43326" />
        </g>
        <g
           id="g43328"
           transform="translate(782.7402,854.1914)">
          <path
             d="m 0,0 c 75.777,-18.481 132.493,-93.382 132.493,-182.988 0,-89.606 -56.716,-164.51 -132.493,-182.987 -83.905,10.754 -149.011,88.574 -149.011,182.987 C -149.011,-88.571 -83.905,-10.755 0,0"
             style="fill:#1f1f1f;fill-opacity:1;fill-rule:evenodd;stroke:none"
             id="path43330" />
        </g>
        <g
           id="g43332"
           transform="translate(830.3867,483.834)">
          <path
             d="M 0,0 C 93.043,0 168.927,84.171 168.927,187.369 168.927,290.571 93.043,374.74 0,374.74 -93.043,374.74 -168.922,290.571 -168.922,187.369 -168.922,84.171 -93.043,0 0,0"
             style="fill:#333333;fill-opacity:1;fill-rule:evenodd;stroke:none"
             id="path43334" />
        </g>
        <g
           id="g43336"
           transform="translate(787.1133,827.7617)">
          <path
             d="m 0,0 c -4.358,-1.642 -9.219,0.562 -10.86,4.918 -1.641,4.359 0.56,9.222 4.919,10.863 0.931,0.348 2.234,0.816 3.923,1.4 1.811,0.625 3.128,1.069 3.953,1.33 4.451,1.385 9.181,-1.099 10.567,-5.549 C 13.888,8.515 11.406,3.786 6.956,2.398 5.29,1.875 4.122,1.493 3.466,1.269 2.679,0.996 1.521,0.571 0,0 m -86.995,-224.742 c 1.733,-4.316 -0.366,-9.23 -4.687,-10.957 -4.32,-1.734 -9.229,0.366 -10.962,4.686 -4.653,11.536 -8.258,23.696 -10.676,36.327 -2.366,12.342 -3.611,25.105 -3.611,38.127 0,34.866 8.824,67.466 24.12,95.154 15.885,28.758 38.75,52.219 65.964,67.458 4.065,2.278 9.209,0.828 11.489,-3.237 2.277,-4.064 0.83,-9.209 -3.235,-11.49 -24.477,-13.701 -45.073,-34.867 -59.428,-60.85 -13.955,-25.264 -22.011,-55.078 -22.011,-87.035 0,-12.047 1.135,-23.738 3.282,-34.956 2.221,-11.589 5.513,-22.71 9.755,-33.227"
             style="fill:#808080;fill-opacity:1;fill-rule:evenodd;stroke:none"
             id="path43338" />
        </g>
        <g
           id="g43340"
           transform="translate(821.4424,586.3281)">
          <path
             d="m 0,0 c 42.143,0 76.521,38.127 76.521,84.875 0,46.746 -34.378,84.874 -76.521,84.874 -42.144,0 -76.521,-38.128 -76.521,-84.874 C -76.521,38.127 -42.144,0 0,0"
             style="fill:#666666;fill-opacity:1;fill-rule:evenodd;stroke:none"
             id="path43342" />
        </g>
        <g
           id="g43344"
           transform="translate(824.6133,711.4551)">
          <path
             d="m 0,0 h 283.556 c 22.136,0 40.252,-18.115 40.252,-40.252 0,-22.136 -18.116,-40.251 -40.252,-40.251 H 10e-4 c -22.137,0 -40.252,18.115 -40.252,40.251 C -40.251,-18.115 -22.136,0 0,0"
             style="fill:#cccccc;fill-opacity:1;fill-rule:evenodd;stroke:none"
             id="path43346" />
        </g>
        <g
           id="g43348"
           transform="translate(1202.4971,483.833)">
          <path
             d="m 0,0 c 93.038,0 168.926,84.172 168.926,187.37 0,103.202 -75.889,187.371 -168.927,187.371 -93.043,0 -168.927,-84.169 -168.927,-187.371 C -168.928,84.172 -93.044,0 0,0"
             style="fill:#333333;fill-opacity:1;fill-rule:evenodd;stroke:none"
             id="path43350" />
        </g>
        <g
           id="g43352"
           transform="translate(1161.2988,827.7617)">
          <path
             d="m 0,0 c -4.354,-1.642 -9.22,0.561 -10.86,4.918 -1.641,4.359 0.564,9.222 4.917,10.863 0.932,0.348 2.236,0.816 3.93,1.4 1.811,0.625 3.123,1.069 3.949,1.33 4.45,1.385 9.18,-1.099 10.566,-5.549 C 13.887,8.515 11.406,3.786 6.956,2.398 5.29,1.875 4.122,1.493 3.466,1.269 2.679,0.996 1.521,0.571 0,0 m -86.995,-224.743 c 1.733,-4.315 -0.367,-9.229 -4.687,-10.957 -4.32,-1.733 -9.229,0.367 -10.962,4.687 -4.653,11.536 -8.258,23.696 -10.677,36.327 -2.366,12.342 -3.611,25.105 -3.611,38.127 0,34.866 8.829,67.466 24.12,95.154 15.886,28.758 38.75,52.219 65.965,67.458 4.064,2.278 9.209,0.828 11.488,-3.237 2.278,-4.064 0.831,-9.209 -3.234,-11.49 -24.477,-13.701 -45.074,-34.867 -59.424,-60.85 -13.96,-25.264 -22.01,-55.078 -22.01,-87.035 0,-12.047 1.13,-23.738 3.277,-34.956 2.22,-11.589 5.513,-22.71 9.755,-33.228"
             style="fill:#808080;fill-opacity:1;fill-rule:evenodd;stroke:none"
             id="path43354" />
        </g>
        <g
           id="g43356"
           transform="translate(1238.9297,854.1914)">
          <path
             d="m 0,0 c 75.782,-18.481 132.493,-93.382 132.493,-182.988 0,-89.606 -56.711,-164.51 -132.493,-182.988 -83.905,10.755 -149.006,88.575 -149.006,182.988 C -149.006,-88.571 -83.905,-10.755 0,0"
             style="fill:#1f1f1f;fill-opacity:1;fill-rule:evenodd;stroke:none"
             id="path43358" />
        </g>
        <g
           id="g43360"
           transform="translate(1286.5762,483.833)">
          <path
             d="M 0,0 C 93.043,0 168.927,84.172 168.927,187.37 168.927,290.571 93.043,374.741 0,374.741 -93.038,374.741 -168.922,290.572 -168.922,187.37 -168.922,84.172 -93.038,0 0,0"
             style="fill:#333333;fill-opacity:1;fill-rule:evenodd;stroke:none"
             id="path43362" />
        </g>
        <g
           id="g43364"
           transform="translate(1243.3027,827.7617)">
          <path
             d="m 0,0 c -4.354,-1.642 -9.22,0.561 -10.86,4.918 -1.641,4.359 0.564,9.222 4.919,10.863 0.931,0.348 2.234,0.816 3.928,1.4 1.811,0.625 3.123,1.069 3.949,1.33 4.45,1.385 9.18,-1.099 10.566,-5.549 C 13.888,8.514 11.406,3.786 6.956,2.398 5.29,1.875 4.122,1.493 3.466,1.269 2.679,0.996 1.52,0.571 0,0 m -86.995,-224.743 c 1.733,-4.315 -0.366,-9.229 -4.687,-10.957 -4.32,-1.733 -9.229,0.367 -10.962,4.687 -4.653,11.536 -8.258,23.696 -10.676,36.327 -2.366,12.342 -3.611,25.105 -3.611,38.127 0,34.866 8.828,67.466 24.119,95.154 15.886,28.758 38.75,52.219 65.965,67.458 4.065,2.278 9.209,0.828 11.489,-3.237 2.282,-4.064 0.83,-9.209 -3.235,-11.49 -24.477,-13.701 -45.074,-34.867 -59.424,-60.85 -13.959,-25.264 -22.01,-55.078 -22.01,-87.035 0,-12.047 1.13,-23.738 3.277,-34.956 2.221,-11.589 5.518,-22.71 9.755,-33.228"
             style="fill:#808080;fill-opacity:1;fill-rule:evenodd;stroke:none"
             id="path43366" />
        </g>
        <g
           id="g43368"
           transform="translate(1277.6318,586.3271)">
          <path
             d="m 0,0 c 42.148,0 76.521,38.128 76.521,84.876 0,46.746 -34.373,84.874 -76.521,84.874 -42.148,0 -76.521,-38.128 -76.521,-84.874 C -76.521,38.128 -42.148,0 0,0"
             style="fill:#666666;fill-opacity:1;fill-rule:evenodd;stroke:none"
             id="path43370" />
        </g>
        <g
           id="g43372"
           transform="translate(1297.6348,711.4551)">
          <path
             d="m 0,0 h 33.16 c 22.142,0 40.257,-18.115 40.257,-40.252 0,-22.136 -18.115,-40.251 -40.257,-40.251 H 0 c -22.137,0 -40.252,18.115 -40.252,40.251 C -40.252,-18.115 -22.137,0 0,0"
             style="fill:#cccccc;fill-opacity:1;fill-rule:evenodd;stroke:none"
             id="path43374" />
        </g>
      </g>
    </g>
  </g>
</svg>
